<?xml version="1.0" encoding="UTF-8"?>
<svg width="256px" height="256px" viewBox="0 0 256 256" version="1.1" xmlns="http://www.w3.org/2000/svg" xmlns:xlink="http://www.w3.org/1999/xlink" preserveAspectRatio="xMidYMid">
    <g>
        <path d="M128,0 C57.307,0 0,57.307 0,128 L0,128 C0,198.693 57.307,256 128,256 L128,256 C198.693,256 256,198.693 256,128 L256,128 C256,57.307 198.693,0 128,0 L128,0 Z" fill="#00C300"></path>
        <path d="M209.476,145.072 L209.476,181.073 C209.476,183.483 207.481,185.477 205.071,185.477 L205.071,185.477 C202.661,185.477 200.666,183.483 200.666,181.073 L200.666,145.072 L186.371,145.072 C183.96,145.072 181.966,143.078 181.966,140.667 L181.966,140.667 C181.966,138.257 183.96,136.262 186.371,136.262 L205.071,136.262 C207.481,136.262 209.476,138.257 209.476,140.667 L209.476,140.667 L209.476,145.072 Z M177.063,181.073 C177.063,183.483 175.068,185.477 172.658,185.477 L172.658,185.477 C170.248,185.477 168.253,183.483 168.253,181.073 L168.253,140.667 C168.253,138.257 170.248,136.262 172.658,136.262 L172.658,136.262 C175.068,136.262 177.063,138.257 177.063,140.667 L177.063,140.667 L177.063,181.073 Z M159.444,181.073 L159.444,181.073 C159.444,183.483 157.45,185.477 155.039,185.477 L155.039,185.477 C152.629,185.477 150.635,183.483 150.635,181.073 L150.635,158.37 L136.34,179.577 C135.544,180.773 134.149,181.472 132.654,181.472 L132.654,181.472 C131.159,181.472 129.764,180.773 128.968,179.577 L114.673,158.37 L114.673,181.073 C114.673,183.483 112.678,185.477 110.268,185.477 L110.268,185.477 C107.858,185.477 105.863,183.483 105.863,181.073 L105.863,140.667 C105.863,138.257 107.858,136.262 110.268,136.262 L110.268,136.262 C112.678,136.262 114.673,138.257 114.673,140.667 L114.673,140.667 L114.673,140.667 C114.673,140.667 128.968,161.874 128.968,161.874 L143.263,140.667 C143.263,140.667 143.263,140.667 143.263,140.667 L143.263,140.667 C143.263,138.257 145.258,136.262 147.668,136.262 L155.039,136.262 C157.45,136.262 159.444,138.257 159.444,140.667 L159.444,140.667 L159.444,181.073 Z M101.459,145.072 L87.164,145.072 L87.164,181.073 C87.164,183.483 85.169,185.477 82.759,185.477 L82.759,185.477 C80.349,185.477 78.354,183.483 78.354,181.073 L78.354,145.072 L64.059,145.072 C61.649,145.072 59.654,143.078 59.654,140.667 L59.654,140.667 C59.654,138.257 61.649,136.262 64.059,136.262 L101.459,136.262 C103.87,136.262 105.864,138.257 105.864,140.667 L105.864,140.667 C105.864,143.078 103.87,145.072 101.459,145.072 L101.459,145.072 Z M209.476,93.874 L209.476,93.874 C209.476,120.096 173.277,141.477 128,141.477 L128,141.477 C82.723,141.477 46.524,120.096 46.524,93.874 L46.524,93.874 C46.524,67.651 82.723,46.27 128,46.27 L128,46.27 C173.277,46.27 209.476,67.651 209.476,93.874 L209.476,93.874 Z" fill="#FFFFFF"></path>
    </g>
</svg>
